# Blender v2.93.4 OBJ File: 'ObjectiveEnv.blend'
# www.blender.org
mtllib PicnicTable.mtl
o Leg.001_Cube.026
v 0.049291 -0.401249 -0.303743
v 0.049291 0.325458 0.183035
v 0.049291 -0.407035 -0.178177
v 0.049291 0.319671 0.308602
v -0.049291 -0.401249 -0.303743
v -0.049291 0.325458 0.183035
v -0.049291 -0.407035 -0.178177
v -0.049291 0.319671 0.308602
v 0.041397 -0.401252 0.375870
v 0.041397 0.325455 -0.110908
v 0.041397 -0.407038 0.250303
v 0.041397 0.319668 -0.236475
v 0.139979 -0.401252 0.375870
v 0.139979 0.325455 -0.110908
v 0.139979 -0.407038 0.250303
v 0.139979 0.319668 -0.236475
v -0.089148 0.313639 0.576779
v -0.089148 0.360889 0.576779
v -0.089148 0.313639 0.241527
v -0.089148 0.360889 0.241527
v 1.864092 0.313639 0.576779
v 1.864092 0.360889 0.576779
v 1.864092 0.313639 0.241527
v 1.864092 0.360889 0.241527
v -0.089148 0.313639 0.208002
v -0.089148 0.360889 0.208002
v -0.089148 0.313639 -0.127251
v -0.089148 0.360889 -0.127251
v 1.864092 0.313639 0.208002
v 1.864092 0.360889 0.208002
v 1.864092 0.313639 -0.127251
v 1.864092 0.360889 -0.127251
v -0.089148 0.313639 -0.160776
v -0.089148 0.360889 -0.160776
v -0.089148 0.313639 -0.496028
v -0.089148 0.360889 -0.496028
v 1.864092 0.313639 -0.160776
v 1.864092 0.360889 -0.160776
v 1.864092 0.313639 -0.496028
v 1.864092 0.360889 -0.496028
v 1.671849 -0.401252 0.375869
v 1.671849 0.325455 -0.110909
v 1.671849 -0.407038 0.250303
v 1.671849 0.319668 -0.236475
v 1.770431 -0.401252 0.375869
v 1.770431 0.325455 -0.110909
v 1.770431 -0.407038 0.250303
v 1.770431 0.319668 -0.236475
v 1.863216 -0.401251 -0.303740
v 1.863216 0.325455 0.183038
v 1.863216 -0.407038 -0.178173
v 1.863216 0.319668 0.308605
v 1.764634 -0.401251 -0.303740
v 1.764634 0.325455 0.183039
v 1.764634 -0.407038 -0.178173
v 1.764634 0.319668 0.308605
vt 0.375000 0.000000
vt 0.625000 0.000000
vt 0.625000 0.250000
vt 0.375000 0.250000
vt 0.625000 0.500000
vt 0.375000 0.500000
vt 0.625000 0.750000
vt 0.375000 0.750000
vt 0.625000 1.000000
vt 0.375000 1.000000
vt 0.125000 0.500000
vt 0.125000 0.750000
vt 0.875000 0.500000
vt 0.875000 0.750000
vt 0.375000 0.000000
vt 0.625000 0.000000
vt 0.625000 0.250000
vt 0.375000 0.250000
vt 0.625000 0.500000
vt 0.375000 0.500000
vt 0.625000 0.750000
vt 0.375000 0.750000
vt 0.625000 1.000000
vt 0.375000 1.000000
vt 0.125000 0.500000
vt 0.125000 0.750000
vt 0.875000 0.500000
vt 0.875000 0.750000
vt 0.375000 0.000000
vt 0.625000 0.000000
vt 0.625000 0.250000
vt 0.375000 0.250000
vt 0.625000 0.500000
vt 0.375000 0.500000
vt 0.625000 0.750000
vt 0.375000 0.750000
vt 0.625000 1.000000
vt 0.375000 1.000000
vt 0.125000 0.500000
vt 0.125000 0.750000
vt 0.875000 0.500000
vt 0.875000 0.750000
vt 0.375000 0.000000
vt 0.625000 0.000000
vt 0.625000 0.250000
vt 0.375000 0.250000
vt 0.625000 0.500000
vt 0.375000 0.500000
vt 0.625000 0.750000
vt 0.375000 0.750000
vt 0.625000 1.000000
vt 0.375000 1.000000
vt 0.125000 0.500000
vt 0.125000 0.750000
vt 0.875000 0.500000
vt 0.875000 0.750000
vt 0.375000 0.000000
vt 0.625000 0.000000
vt 0.625000 0.250000
vt 0.375000 0.250000
vt 0.625000 0.500000
vt 0.375000 0.500000
vt 0.625000 0.750000
vt 0.375000 0.750000
vt 0.625000 1.000000
vt 0.375000 1.000000
vt 0.125000 0.500000
vt 0.125000 0.750000
vt 0.875000 0.500000
vt 0.875000 0.750000
vt 0.375000 0.000000
vt 0.625000 0.000000
vt 0.625000 0.250000
vt 0.375000 0.250000
vt 0.625000 0.500000
vt 0.375000 0.500000
vt 0.625000 0.750000
vt 0.375000 0.750000
vt 0.625000 1.000000
vt 0.375000 1.000000
vt 0.125000 0.500000
vt 0.125000 0.750000
vt 0.875000 0.500000
vt 0.875000 0.750000
vt 0.375000 0.000000
vt 0.625000 0.000000
vt 0.625000 0.250000
vt 0.375000 0.250000
vt 0.625000 0.500000
vt 0.375000 0.500000
vt 0.625000 0.750000
vt 0.375000 0.750000
vt 0.625000 1.000000
vt 0.375000 1.000000
vt 0.125000 0.500000
vt 0.125000 0.750000
vt 0.875000 0.500000
vt 0.875000 0.750000
vn 1.0000 0.0000 -0.0000
vn 0.0000 -0.5565 0.8308
vn -1.0000 0.0000 0.0000
vn -0.0000 0.5565 -0.8308
vn -0.0000 -0.9989 -0.0460
vn 0.0000 0.9989 0.0460
vn -0.0000 -0.5565 -0.8308
vn -0.0000 0.5565 0.8308
vn -0.0000 -0.9989 0.0460
vn -0.0000 0.9989 -0.0460
vn 0.0000 0.0000 -1.0000
vn -0.0000 0.0000 1.0000
vn -0.0000 -1.0000 0.0000
vn 0.0000 1.0000 0.0000
usemtl Brown
s off
f 1/1/1 2/2/1 4/3/1 3/4/1
f 3/4/2 4/3/2 8/5/2 7/6/2
f 7/6/3 8/5/3 6/7/3 5/8/3
f 5/8/4 6/7/4 2/9/4 1/10/4
f 3/11/5 7/6/5 5/8/5 1/12/5
f 8/5/6 4/13/6 2/14/6 6/7/6
f 9/15/3 10/16/3 12/17/3 11/18/3
f 11/18/7 12/17/7 16/19/7 15/20/7
f 15/20/1 16/19/1 14/21/1 13/22/1
f 13/22/8 14/21/8 10/23/8 9/24/8
f 11/25/9 15/20/9 13/22/9 9/26/9
f 16/19/10 12/27/10 10/28/10 14/21/10
f 17/29/3 18/30/3 20/31/3 19/32/3
f 19/32/11 20/31/11 24/33/11 23/34/11
f 23/34/1 24/33/1 22/35/1 21/36/1
f 21/36/12 22/35/12 18/37/12 17/38/12
f 19/39/13 23/34/13 21/36/13 17/40/13
f 24/33/14 20/41/14 18/42/14 22/35/14
f 25/43/3 26/44/3 28/45/3 27/46/3
f 27/46/11 28/45/11 32/47/11 31/48/11
f 31/48/1 32/47/1 30/49/1 29/50/1
f 29/50/12 30/49/12 26/51/12 25/52/12
f 27/53/13 31/48/13 29/50/13 25/54/13
f 32/47/14 28/55/14 26/56/14 30/49/14
f 33/57/3 34/58/3 36/59/3 35/60/3
f 35/60/11 36/59/11 40/61/11 39/62/11
f 39/62/1 40/61/1 38/63/1 37/64/1
f 37/64/12 38/63/12 34/65/12 33/66/12
f 35/67/13 39/62/13 37/64/13 33/68/13
f 40/61/14 36/69/14 34/70/14 38/63/14
f 41/71/3 42/72/3 44/73/3 43/74/3
f 43/74/7 44/73/7 48/75/7 47/76/7
f 47/76/1 48/75/1 46/77/1 45/78/1
f 45/78/8 46/77/8 42/79/8 41/80/8
f 43/81/9 47/76/9 45/78/9 41/82/9
f 48/75/10 44/83/10 42/84/10 46/77/10
f 49/85/1 50/86/1 52/87/1 51/88/1
f 51/88/2 52/87/2 56/89/2 55/90/2
f 55/90/3 56/89/3 54/91/3 53/92/3
f 53/92/4 54/91/4 50/93/4 49/94/4
f 51/95/5 55/90/5 53/92/5 49/96/5
f 56/89/6 52/97/6 50/98/6 54/91/6
