# Blender v2.93.4 OBJ File: 'ObjectiveEnv.blend'
# www.blender.org
mtllib PlantBox.mtl
o Bush_Cube.035
v -0.644451 0.252936 0.226289
v -0.720457 0.364392 0.337745
v -1.162930 0.362377 0.226289
v -0.649239 0.261728 0.268942
v -0.665365 0.285998 0.305101
v -0.818566 0.260958 0.226289
v -0.828784 0.271490 0.270011
v -0.833113 0.291188 0.299433
v -0.929655 0.299617 0.290638
v -0.888787 0.363929 0.329261
v -1.031985 0.363384 0.305101
v -0.690373 0.322048 0.329261
v -0.862207 0.320501 0.319022
v -0.980302 0.322257 0.299433
v -1.099165 0.320187 0.226289
v -0.978241 0.284573 0.226289
v -1.128252 0.362839 0.268942
v -1.056779 0.319615 0.270011
v -0.958724 0.290616 0.267792
v -1.061673 0.816970 0.337745
v -1.153729 0.928426 0.226289
v -1.507184 0.818985 0.226289
v -1.095439 0.859314 0.329261
v -1.124790 0.895364 0.305101
v -1.230700 0.817432 0.329261
v -1.269605 0.860861 0.319022
v -1.284712 0.890174 0.299433
v -1.368544 0.881745 0.290638
v -1.315748 0.920404 0.226289
v -1.439814 0.896789 0.226289
v -1.145259 0.919633 0.268942
v -1.310085 0.909872 0.270011
v -1.411186 0.890746 0.267792
v -1.471809 0.818523 0.268942
v -1.374721 0.817978 0.305101
v -1.507037 0.861175 0.226289
v -1.465512 0.861747 0.270011
v -1.385052 0.859105 0.299433
v -0.644450 0.252936 -0.226289
v -1.162930 0.362377 -0.226289
v -0.720457 0.364392 -0.337745
v -0.818566 0.260958 -0.226289
v -0.978241 0.284573 -0.226289
v -0.649239 0.261729 -0.268942
v -0.828784 0.271490 -0.270011
v -0.958724 0.290616 -0.267792
v -0.929655 0.299617 -0.290638
v -1.128252 0.362839 -0.268942
v -1.031985 0.363384 -0.305101
v -1.099165 0.320187 -0.226289
v -1.056779 0.319615 -0.270011
v -0.980302 0.322257 -0.299433
v -0.690373 0.322048 -0.329261
v -0.665365 0.285998 -0.305101
v -0.888787 0.363930 -0.329261
v -0.862207 0.320501 -0.319022
v -0.833113 0.291188 -0.299433
v -1.153729 0.928426 -0.226289
v -1.061673 0.816970 -0.337745
v -1.507184 0.818985 -0.226289
v -1.145259 0.919633 -0.268942
v -1.124790 0.895364 -0.305101
v -1.315748 0.920404 -0.226289
v -1.310085 0.909872 -0.270011
v -1.284712 0.890174 -0.299433
v -1.368544 0.881745 -0.290638
v -1.230700 0.817432 -0.329261
v -1.374721 0.817978 -0.305101
v -1.095439 0.859314 -0.329261
v -1.269605 0.860861 -0.319022
v -1.385052 0.859105 -0.299433
v -1.507037 0.861175 -0.226289
v -1.439814 0.896789 -0.226289
v -1.471809 0.818523 -0.268942
v -1.465512 0.861747 -0.270011
v -1.411186 0.890746 -0.267792
v 0.644450 0.252936 0.226289
v 1.162930 0.362377 0.226289
v 0.720457 0.364392 0.337745
v 0.818566 0.260958 0.226289
v 0.978241 0.284573 0.226289
v 0.649239 0.261729 0.268942
v 0.828784 0.271490 0.270011
v 0.958724 0.290616 0.267792
v 0.929655 0.299617 0.290638
v 1.128252 0.362839 0.268942
v 1.031985 0.363384 0.305101
v 1.099165 0.320187 0.226289
v 1.056779 0.319615 0.270011
v 0.980302 0.322257 0.299433
v 0.690373 0.322048 0.329261
v 0.665365 0.285998 0.305101
v 0.888787 0.363930 0.329261
v 0.862207 0.320501 0.319022
v 0.833113 0.291188 0.299433
v 1.153729 0.928426 0.226289
v 1.061673 0.816970 0.337745
v 1.507184 0.818985 0.226289
v 1.145259 0.919633 0.268942
v 1.124790 0.895364 0.305101
v 1.315748 0.920404 0.226289
v 1.310085 0.909872 0.270011
v 1.284712 0.890174 0.299433
v 1.368544 0.881745 0.290638
v 1.230700 0.817432 0.329261
v 1.374721 0.817978 0.305101
v 1.095439 0.859314 0.329261
v 1.269605 0.860861 0.319022
v 1.385052 0.859105 0.299433
v 1.507037 0.861175 0.226289
v 1.439814 0.896789 0.226289
v 1.471809 0.818523 0.268942
v 1.465512 0.861747 0.270011
v 1.411186 0.890746 0.267792
v 0.644451 0.252936 -0.226289
v 0.720457 0.364392 -0.337745
v 1.162930 0.362377 -0.226289
v 0.649239 0.261728 -0.268942
v 0.665365 0.285998 -0.305101
v 0.818566 0.260958 -0.226289
v 0.828784 0.271490 -0.270011
v 0.833113 0.291188 -0.299433
v 0.929655 0.299617 -0.290638
v 0.888787 0.363929 -0.329261
v 1.031985 0.363384 -0.305101
v 0.690373 0.322048 -0.329261
v 0.862207 0.320501 -0.319022
v 0.980302 0.322257 -0.299433
v 1.099165 0.320187 -0.226289
v 0.978241 0.284573 -0.226289
v 1.128252 0.362839 -0.268942
v 1.056779 0.319615 -0.270011
v 0.958724 0.290616 -0.267792
v 1.153729 0.928426 -0.226289
v 1.507184 0.818985 -0.226289
v 1.061673 0.816970 -0.337745
v 1.315748 0.920404 -0.226289
v 1.439814 0.896789 -0.226289
v 1.145259 0.919633 -0.268942
v 1.310085 0.909872 -0.270011
v 1.411186 0.890746 -0.267792
v 1.368544 0.881745 -0.290638
v 1.471809 0.818523 -0.268942
v 1.374721 0.817977 -0.305101
v 1.507037 0.861175 -0.226289
v 1.465512 0.861747 -0.270011
v 1.385052 0.859105 -0.299433
v 1.095439 0.859314 -0.329261
v 1.124790 0.895364 -0.305101
v 1.230700 0.817432 -0.329261
v 1.269605 0.860861 -0.319022
v 1.284712 0.890174 -0.299433
v -1.408571 -0.016861 0.385658
v -1.398751 0.754455 0.307357
v -1.408571 -0.016861 -0.385658
v -1.398751 0.754455 -0.307357
v 1.408576 -0.016861 0.385658
v 1.398756 0.754455 0.307357
v 1.408576 -0.016861 -0.385658
v 1.398756 0.754455 -0.307357
v -1.670366 0.754455 0.457335
v -1.670366 0.754455 -0.457335
v 1.670371 0.754455 -0.457335
v 1.670371 0.754455 0.457335
v -1.670366 0.640087 0.457335
v -1.670366 0.640087 -0.457335
v 1.670371 0.640087 -0.457335
v 1.670371 0.640087 0.457335
v -1.464716 0.561634 -0.401030
v 1.464721 0.561634 -0.401030
v 1.464721 0.561634 0.401030
v -1.464716 0.561634 0.401030
v -1.263036 0.503028 0.277535
v -1.263036 0.503028 -0.277535
v 1.263041 0.503028 -0.277535
v 1.263041 0.503028 0.277535
vt 0.416250 0.795994
vt 0.583750 0.787695
vt 0.583750 0.962305
vt 0.416250 0.954006
vt 0.415504 0.541250
vt 0.584496 0.541250
vt 0.584495 0.708750
vt 0.415504 0.708750
vt 0.415504 0.041250
vt 0.584496 0.041250
vt 0.584495 0.208750
vt 0.415504 0.208750
vt 0.416250 0.295994
vt 0.583750 0.287695
vt 0.583750 0.462305
vt 0.416250 0.454006
vt 0.175440 0.708750
vt 0.174886 0.724536
vt 0.154113 0.724931
vt 0.155295 0.708750
vt 0.173020 0.750000
vt 0.153612 0.750000
vt 0.125000 0.724110
vt 0.125000 0.708750
vt 0.142443 0.750000
vt 0.416079 0.971967
vt 0.400006 0.971742
vt 0.400579 0.952668
vt 0.413561 1.000000
vt 0.397976 1.000000
vt 0.375000 0.971388
vt 0.375000 0.951980
vt 0.389007 1.000000
vt 0.399328 0.041250
vt 0.398379 0.025069
vt 0.415060 0.025464
vt 0.375000 0.041250
vt 0.375000 0.025890
vt 0.397976 0.000000
vt 0.413561 0.000000
vt 0.375000 0.017434
vt 0.599421 0.963278
vt 0.599994 0.977395
vt 0.583921 0.976397
vt 0.625000 0.963444
vt 0.625000 0.976019
vt 0.596665 1.000000
vt 0.581807 1.000000
vt 0.625000 0.982611
vt 0.840719 0.708750
vt 0.853459 0.708750
vt 0.853014 0.724931
vt 0.840053 0.724536
vt 0.875000 0.708750
vt 0.875000 0.724110
vt 0.851019 0.750000
vt 0.838444 0.750000
vt 0.875000 0.732566
vt 0.583709 0.025464
vt 0.599022 0.025069
vt 0.599548 0.041250
vt 0.581807 0.000000
vt 0.596665 0.000000
vt 0.625000 0.025890
vt 0.625000 0.041250
vt 0.604453 0.000000
vt 0.175440 0.541250
vt 0.155295 0.541250
vt 0.154113 0.525069
vt 0.174886 0.525464
vt 0.125000 0.541250
vt 0.125000 0.525890
vt 0.153612 0.500000
vt 0.173020 0.500000
vt 0.125000 0.517434
vt 0.415060 0.224536
vt 0.398379 0.224931
vt 0.399328 0.208750
vt 0.413561 0.250000
vt 0.397976 0.250000
vt 0.375000 0.224110
vt 0.375000 0.208750
vt 0.389007 0.250000
vt 0.400579 0.297332
vt 0.400006 0.278258
vt 0.416079 0.278033
vt 0.375000 0.298020
vt 0.375000 0.278612
vt 0.375000 0.267443
vt 0.840719 0.541250
vt 0.840053 0.525464
vt 0.853014 0.525069
vt 0.853459 0.541250
vt 0.838444 0.500000
vt 0.851019 0.500000
vt 0.875000 0.525890
vt 0.875000 0.541250
vt 0.857611 0.500000
vt 0.583921 0.273603
vt 0.599994 0.272605
vt 0.599421 0.286722
vt 0.581807 0.250000
vt 0.596665 0.250000
vt 0.625000 0.273981
vt 0.625000 0.286556
vt 0.604453 0.250000
vt 0.599548 0.208750
vt 0.599022 0.224931
vt 0.583709 0.224536
vt 0.625000 0.208750
vt 0.625000 0.224110
vt 0.625000 0.232566
vt 0.324560 0.708750
vt 0.344705 0.708750
vt 0.345887 0.724931
vt 0.325114 0.724536
vt 0.375000 0.708750
vt 0.375000 0.724110
vt 0.346388 0.750000
vt 0.326980 0.750000
vt 0.379669 0.750003
vt 0.415060 0.724536
vt 0.398379 0.724931
vt 0.399328 0.708750
vt 0.413561 0.750000
vt 0.397976 0.750000
vt 0.400579 0.797332
vt 0.400006 0.778258
vt 0.416079 0.778033
vt 0.375000 0.798020
vt 0.375000 0.778612
vt 0.659281 0.708750
vt 0.659947 0.724536
vt 0.646986 0.724931
vt 0.646541 0.708750
vt 0.661556 0.750000
vt 0.648981 0.750000
vt 0.625000 0.724110
vt 0.625000 0.708750
vt 0.623948 0.744189
vt 0.583921 0.773603
vt 0.599994 0.772605
vt 0.599421 0.786722
vt 0.581807 0.750000
vt 0.596665 0.750000
vt 0.625000 0.773981
vt 0.625000 0.786556
vt 0.599548 0.708750
vt 0.599022 0.724931
vt 0.583709 0.724536
vt 0.324560 0.541250
vt 0.325114 0.525464
vt 0.345887 0.525069
vt 0.344705 0.541250
vt 0.326980 0.500000
vt 0.346388 0.500000
vt 0.375000 0.525890
vt 0.375000 0.541250
vt 0.373855 0.505811
vt 0.416079 0.471967
vt 0.400006 0.471742
vt 0.400579 0.452668
vt 0.413561 0.500000
vt 0.397976 0.500000
vt 0.375000 0.471388
vt 0.375000 0.451980
vt 0.399328 0.541250
vt 0.398379 0.525069
vt 0.415060 0.525464
vt 0.659281 0.541250
vt 0.646541 0.541250
vt 0.646986 0.525069
vt 0.659947 0.525464
vt 0.625000 0.541250
vt 0.625000 0.525890
vt 0.648981 0.500000
vt 0.661556 0.500000
vt 0.618151 0.500015
vt 0.583709 0.525464
vt 0.599022 0.525069
vt 0.599548 0.541250
vt 0.581807 0.500000
vt 0.596665 0.500000
vt 0.599421 0.463278
vt 0.599994 0.477395
vt 0.583921 0.476397
vt 0.625000 0.463444
vt 0.625000 0.476019
vt 0.587931 0.000000
vt 0.625000 0.000000
vt 0.625000 0.250000
vt 0.587931 0.250000
vt 0.625000 0.500000
vt 0.587931 0.500000
vt 0.625000 0.750000
vt 0.587931 0.750000
vt 0.625000 1.000000
vt 0.587931 1.000000
vt 0.637915 0.512915
vt 0.862085 0.512915
vt 0.862085 0.512915
vt 0.637915 0.512915
vt 0.862085 0.737085
vt 0.875000 0.500000
vt 0.875000 0.750000
vt 0.637915 0.737085
vt 0.562503 0.750000
vt 0.562503 1.000000
vt 0.562503 0.500000
vt 0.562503 0.250000
vt 0.562503 0.000000
vt 0.862085 0.737085
vt 0.637915 0.737085
vt 0.125000 0.500000
vt 0.375000 0.500000
vt 0.375000 0.750000
vt 0.125000 0.750000
vt 0.375000 0.000000
vt 0.375000 0.250000
vt 0.375000 1.000000
vn 0.0255 -0.1213 0.9923
vn 0.0254 0.0814 0.9963
vn -0.0254 0.0814 0.9963
vn -0.0255 -0.1213 0.9923
vn 0.6744 -0.6911 -0.2600
vn 0.9065 -0.2754 -0.3200
vn 0.9065 -0.2754 0.3200
vn 0.6744 -0.6911 0.2600
vn -0.6744 -0.6911 0.2600
vn -0.9065 -0.2754 0.3200
vn -0.9065 -0.2754 -0.3200
vn -0.6744 -0.6911 -0.2600
vn -0.0255 -0.1213 -0.9923
vn -0.0254 0.0814 -0.9963
vn 0.0254 0.0814 -0.9963
vn 0.0255 -0.1213 -0.9923
vn -0.0229 -0.9944 0.1032
vn -0.0217 -0.9225 0.3854
vn -0.0940 -0.9213 0.3772
vn -0.0932 -0.9902 0.1041
vn -0.0210 -0.7126 0.7012
vn -0.0798 -0.7288 0.6800
vn -0.1989 -0.8897 0.4108
vn -0.2212 -0.9679 0.1190
vn -0.1465 -0.7422 0.6539
vn -0.1040 -0.1806 0.9780
vn -0.0985 -0.4484 0.8884
vn -0.0231 -0.3984 0.9169
vn -0.2471 -0.3086 0.9185
vn -0.2053 -0.5586 0.8036
vn -0.4345 -0.8795 0.1940
vn -0.3291 -0.7541 0.5683
vn -0.4754 -0.5334 0.6996
vn -0.0269 0.4315 0.9017
vn -0.1117 0.3190 0.9411
vn -0.1079 0.0250 0.9938
vn -0.0251 0.6730 0.7392
vn -0.0954 0.6651 0.7407
vn -0.2632 0.2950 0.9185
vn -0.2674 -0.0757 0.9606
vn -0.1815 0.6290 0.7559
vn -0.0148 0.9939 0.1091
vn -0.0624 0.9902 0.1249
vn -0.1181 0.8941 0.4319
vn -0.0268 0.9029 0.4290
vn -0.1850 0.9641 0.1902
vn -0.2735 0.7963 0.5396
vn -0.5973 -0.1957 0.7777
vn -0.5218 0.4265 0.7387
vn -0.7485 0.5705 0.3379
vn -0.0229 -0.9944 -0.1032
vn -0.0932 -0.9902 -0.1041
vn -0.0940 -0.9213 -0.3772
vn -0.0217 -0.9225 -0.3854
vn -0.2212 -0.9679 -0.1190
vn -0.1989 -0.8897 -0.4108
vn -0.0798 -0.7288 -0.6800
vn -0.0210 -0.7126 -0.7012
vn -0.1465 -0.7422 -0.6539
vn -0.4754 -0.5334 -0.6996
vn -0.3291 -0.7541 -0.5683
vn -0.4345 -0.8795 -0.1940
vn -0.2471 -0.3086 -0.9185
vn -0.2053 -0.5586 -0.8036
vn -0.0231 -0.3984 -0.9169
vn -0.0985 -0.4484 -0.8884
vn -0.1040 -0.1806 -0.9780
vn -0.0148 0.9939 -0.1091
vn -0.0268 0.9029 -0.4290
vn -0.1181 0.8941 -0.4319
vn -0.0624 0.9902 -0.1249
vn -0.0251 0.6730 -0.7392
vn -0.0954 0.6651 -0.7407
vn -0.2735 0.7962 -0.5396
vn -0.1850 0.9641 -0.1902
vn -0.1815 0.6290 -0.7559
vn -0.1079 0.0250 -0.9938
vn -0.1117 0.3190 -0.9411
vn -0.0269 0.4315 -0.9017
vn -0.2674 -0.0757 -0.9606
vn -0.2632 0.2950 -0.9185
vn -0.7485 0.5705 -0.3379
vn -0.5218 0.4265 -0.7387
vn -0.5973 -0.1957 -0.7777
vn 0.0229 -0.9944 0.1032
vn 0.0932 -0.9902 0.1041
vn 0.0940 -0.9213 0.3772
vn 0.0217 -0.9225 0.3854
vn 0.2212 -0.9679 0.1190
vn 0.1989 -0.8897 0.4108
vn 0.0798 -0.7288 0.6800
vn 0.0210 -0.7126 0.7012
vn 0.1465 -0.7422 0.6539
vn 0.4754 -0.5334 0.6996
vn 0.3291 -0.7541 0.5683
vn 0.4345 -0.8795 0.1940
vn 0.2471 -0.3086 0.9185
vn 0.2053 -0.5586 0.8036
vn 0.0231 -0.3984 0.9169
vn 0.0985 -0.4484 0.8884
vn 0.1040 -0.1806 0.9780
vn 0.0148 0.9939 0.1091
vn 0.0268 0.9029 0.4290
vn 0.1181 0.8941 0.4319
vn 0.0624 0.9902 0.1249
vn 0.0251 0.6730 0.7392
vn 0.0954 0.6651 0.7407
vn 0.2735 0.7962 0.5396
vn 0.1850 0.9641 0.1902
vn 0.1815 0.6290 0.7559
vn 0.1079 0.0250 0.9938
vn 0.1117 0.3190 0.9411
vn 0.0269 0.4315 0.9017
vn 0.2674 -0.0757 0.9606
vn 0.2632 0.2950 0.9185
vn 0.7485 0.5705 0.3379
vn 0.5218 0.4265 0.7387
vn 0.5973 -0.1957 0.7777
vn 0.0229 -0.9944 -0.1032
vn 0.0217 -0.9225 -0.3854
vn 0.0940 -0.9213 -0.3772
vn 0.0932 -0.9902 -0.1041
vn 0.0210 -0.7126 -0.7012
vn 0.0798 -0.7288 -0.6800
vn 0.1989 -0.8897 -0.4108
vn 0.2212 -0.9679 -0.1190
vn 0.1465 -0.7422 -0.6539
vn 0.1040 -0.1806 -0.9780
vn 0.0985 -0.4484 -0.8884
vn 0.0231 -0.3984 -0.9169
vn 0.2471 -0.3086 -0.9185
vn 0.2053 -0.5586 -0.8036
vn 0.4345 -0.8795 -0.1940
vn 0.3291 -0.7541 -0.5683
vn 0.4754 -0.5334 -0.6996
vn 0.0148 0.9939 -0.1091
vn 0.0624 0.9902 -0.1249
vn 0.1181 0.8941 -0.4319
vn 0.0268 0.9029 -0.4290
vn 0.1850 0.9641 -0.1902
vn 0.2735 0.7962 -0.5396
vn 0.0954 0.6651 -0.7407
vn 0.0251 0.6730 -0.7392
vn 0.1815 0.6290 -0.7559
vn 0.5973 -0.1957 -0.7777
vn 0.5218 0.4265 -0.7387
vn 0.7485 0.5705 -0.3379
vn 0.2674 -0.0757 -0.9606
vn 0.2632 0.2950 -0.9185
vn 0.0269 0.4315 -0.9017
vn 0.1117 0.3190 -0.9411
vn 0.1079 0.0250 -0.9938
vn -1.0000 0.0000 0.0000
vn 0.0000 0.0000 -1.0000
vn 1.0000 0.0000 0.0000
vn 0.0000 0.0000 1.0000
vn 0.0000 0.1178 0.9930
vn 0.0000 1.0000 0.0000
vn 0.0000 -0.5831 0.8124
vn 0.3564 -0.9343 0.0000
vn 0.0000 -0.5831 -0.8124
vn -0.3564 -0.9343 0.0000
vn -0.8800 0.4750 0.0000
vn 0.8800 0.4750 0.0000
vn 0.0000 0.1178 -0.9930
vn 0.0000 -1.0000 0.0000
vn -0.9953 -0.0966 0.0000
vn 0.0000 -0.0266 -0.9996
vn 0.9953 -0.0966 0.0000
vn 0.0000 -0.0266 0.9996
usemtl Grass
s 1
f 79/1/1 97/2/2 20/3/3 2/4/4
f 117/5/5 135/6/6 98/7/7 78/8/8
f 3/9/9 22/10/10 60/11/11 40/12/12
f 41/13/13 59/14/14 136/15/15 116/16/16
f 1/17/17 4/18/18 7/19/19 6/20/20
f 4/18/18 5/21/21 8/22/22 7/19/19
f 6/20/20 7/19/19 19/23/23 16/24/24
f 7/19/19 8/22/22 9/25/25 19/23/23
f 2/4/4 10/26/26 13/27/27 12/28/28
f 10/26/26 11/29/29 14/30/30 13/27/27
f 12/28/28 13/27/27 8/31/22 5/32/21
f 13/27/27 14/30/30 9/33/25 8/31/22
f 3/9/9 15/34/31 18/35/32 17/36/33
f 15/34/31 16/37/24 19/38/23 18/35/32
f 17/36/33 18/35/32 14/39/30 11/40/29
f 18/35/32 19/38/23 9/41/25 14/39/30
f 20/3/3 23/42/34 26/43/35 25/44/36
f 23/42/34 24/45/37 27/46/38 26/43/35
f 25/44/36 26/43/35 38/47/39 35/48/40
f 26/43/35 27/46/38 28/49/41 38/47/39
f 21/50/42 29/51/43 32/52/44 31/53/45
f 29/51/43 30/54/46 33/55/47 32/52/44
f 31/53/45 32/52/44 27/56/38 24/57/37
f 32/52/44 33/55/47 28/58/41 27/56/38
f 22/10/10 34/59/48 37/60/49 36/61/50
f 34/59/48 35/62/40 38/63/39 37/60/49
f 36/61/50 37/60/49 33/64/47 30/65/46
f 37/60/49 38/63/39 28/66/41 33/64/47
f 39/67/51 42/68/52 45/69/53 44/70/54
f 42/68/52 43/71/55 46/72/56 45/69/53
f 44/70/54 45/69/53 57/73/57 54/74/58
f 45/69/53 46/72/56 47/75/59 57/73/57
f 40/12/12 48/76/60 51/77/61 50/78/62
f 48/76/60 49/79/63 52/80/64 51/77/61
f 50/78/62 51/77/61 46/81/56 43/82/55
f 51/77/61 52/80/64 47/83/59 46/81/56
f 41/13/13 53/84/65 56/85/66 55/86/67
f 53/84/65 54/87/58 57/88/57 56/85/66
f 55/86/67 56/85/66 52/80/64 49/79/63
f 56/85/66 57/88/57 47/89/59 52/80/64
f 58/90/68 61/91/69 64/92/70 63/93/71
f 61/91/69 62/94/72 65/95/73 64/92/70
f 63/93/71 64/92/70 76/96/74 73/97/75
f 64/92/70 65/95/73 66/98/76 76/96/74
f 59/14/14 67/99/77 70/100/78 69/101/79
f 67/99/77 68/102/80 71/103/81 70/100/78
f 69/101/79 70/100/78 65/104/73 62/105/72
f 70/100/78 71/103/81 66/106/76 65/104/73
f 60/11/11 72/107/82 75/108/83 74/109/84
f 72/107/82 73/110/75 76/111/74 75/108/83
f 74/109/84 75/108/83 71/103/81 68/102/80
f 75/108/83 76/111/74 66/112/76 71/103/81
f 77/113/85 80/114/86 83/115/87 82/116/88
f 80/114/86 81/117/89 84/118/90 83/115/87
f 82/116/88 83/115/87 95/119/91 92/120/92
f 83/115/87 84/118/90 85/121/93 95/119/91
f 78/8/8 86/122/94 89/123/95 88/124/96
f 86/122/94 87/125/97 90/126/98 89/123/95
f 88/124/96 89/123/95 84/118/90 81/117/89
f 89/123/95 90/126/98 85/121/93 84/118/90
f 79/1/1 91/127/99 94/128/100 93/129/101
f 91/127/99 92/130/92 95/131/91 94/128/100
f 93/129/101 94/128/100 90/126/98 87/125/97
f 94/128/100 95/131/91 85/121/93 90/126/98
f 96/132/102 99/133/103 102/134/104 101/135/105
f 99/133/103 100/136/106 103/137/107 102/134/104
f 101/135/105 102/134/104 114/138/108 111/139/109
f 102/134/104 103/137/107 104/140/110 114/138/108
f 97/2/2 105/141/111 108/142/112 107/143/113
f 105/141/111 106/144/114 109/145/115 108/142/112
f 107/143/113 108/142/112 103/146/107 100/147/106
f 108/142/112 109/145/115 104/140/110 103/146/107
f 98/7/7 110/148/116 113/149/117 112/150/118
f 110/148/116 111/139/109 114/138/108 113/149/117
f 112/150/118 113/149/117 109/145/115 106/144/114
f 113/149/117 114/138/108 104/140/110 109/145/115
f 115/151/119 118/152/120 121/153/121 120/154/122
f 118/152/120 119/155/123 122/156/124 121/153/121
f 120/154/122 121/153/121 133/157/125 130/158/126
f 121/153/121 122/156/124 123/159/127 133/157/125
f 116/16/16 124/160/128 127/161/129 126/162/130
f 124/160/128 125/163/131 128/164/132 127/161/129
f 126/162/130 127/161/129 122/165/124 119/166/123
f 127/161/129 128/164/132 123/159/127 122/165/124
f 117/5/5 129/167/133 132/168/134 131/169/135
f 129/167/133 130/158/126 133/157/125 132/168/134
f 131/169/135 132/168/134 128/164/132 125/163/131
f 132/168/134 133/157/125 123/159/127 128/164/132
f 134/170/136 137/171/137 140/172/138 139/173/139
f 137/171/137 138/174/140 141/175/141 140/172/138
f 139/173/139 140/172/138 152/176/142 149/177/143
f 140/172/138 141/175/141 142/178/144 152/176/142
f 135/6/6 143/179/145 146/180/146 145/181/147
f 143/179/145 144/182/148 147/183/149 146/180/146
f 145/181/147 146/180/146 141/175/141 138/174/140
f 146/180/146 147/183/149 142/178/144 141/175/141
f 136/15/15 148/184/150 151/185/151 150/186/152
f 148/184/150 149/187/143 152/188/142 151/185/151
f 150/186/152 151/185/151 147/183/149 144/182/148
f 151/185/151 152/188/142 142/178/144 147/183/149
f 39/67/51 1/17/17 6/20/20 42/68/52
f 42/68/52 6/20/20 16/24/24 43/71/55
f 43/82/55 16/37/24 15/34/31 50/78/62
f 50/78/62 15/34/31 3/9/9 40/12/12
f 2/4/4 20/3/3 25/44/36 10/26/26
f 10/26/26 25/44/36 35/48/40 11/29/29
f 11/40/29 35/62/40 34/59/48 17/36/33
f 17/36/33 34/59/48 22/10/10 3/9/9
f 36/61/50 72/107/82 60/11/11 22/10/10
f 59/14/14 41/13/13 55/86/67 67/99/77
f 67/99/77 55/86/67 49/79/63 68/102/80
f 68/102/80 49/79/63 48/76/60 74/109/84
f 74/109/84 48/76/60 40/12/12 60/11/11
f 115/151/119 39/67/51 44/70/54 118/152/120
f 118/152/120 44/70/54 54/74/58 119/155/123
f 119/166/123 54/87/58 53/84/65 126/162/130
f 126/162/130 53/84/65 41/13/13 116/16/16
f 58/90/68 134/170/136 139/173/139 61/91/69
f 24/45/37 23/42/34 107/143/113 100/136/106 99/133/103 31/53/45
f 69/101/79 148/184/150 136/15/15 59/14/14
f 135/6/6 117/5/5 131/169/135 143/179/145
f 143/179/145 131/169/135 125/163/131 144/182/148
f 144/182/148 125/163/131 124/160/128 150/186/152
f 150/186/152 124/160/128 116/16/16 136/15/15
f 77/113/85 115/151/119 120/154/122 80/114/86
f 80/114/86 120/154/122 130/158/126 81/117/89
f 81/117/89 130/158/126 129/167/133 88/124/96
f 88/124/96 129/167/133 117/5/5 78/8/8
f 58/90/68 63/93/71 73/110/75 72/107/82 36/61/50 30/54/46 29/51/43 21/50/42 96/132/102 101/135/105 111/139/109 110/148/116 145/181/147 138/174/140 137/171/137 134/170/136
f 149/187/143 148/184/150 69/101/79 62/94/72 61/91/69 139/173/139
f 145/181/147 110/148/116 98/7/7 135/6/6
f 97/2/2 79/1/1 93/129/101 105/141/111
f 105/141/111 93/129/101 87/125/97 106/144/114
f 106/144/114 87/125/97 86/122/94 112/150/118
f 112/150/118 86/122/94 78/8/8 98/7/7
f 1/17/17 77/113/85 82/116/88 4/18/18
f 4/18/18 82/116/88 92/120/92 5/21/21
f 5/32/21 92/130/92 91/127/99 12/28/28
f 12/28/28 91/127/99 79/1/1 2/4/4
f 96/132/102 21/50/42 31/53/45 99/133/103
f 107/143/113 23/42/34 20/3/3 97/2/2
f 39/67/51 115/151/119 77/113/85 1/17/17
usemtl Material.005
s off
f 165/189/153 161/190/153 162/191/153 166/192/153
f 166/192/154 162/191/154 163/193/154 167/194/154
f 167/194/155 163/193/155 164/195/155 168/196/155
f 168/196/156 164/195/156 161/197/156 165/198/156
f 160/199/157 156/200/157 174/201/157 175/202/157
f 154/203/158 156/200/158 162/204/158 161/205/158
f 156/200/158 160/199/158 163/193/158 162/204/158
f 160/199/158 158/206/158 164/195/158 163/193/158
f 158/206/158 154/203/158 161/205/158 164/195/158
f 171/207/159 168/196/159 165/198/159 172/208/159
f 170/209/160 167/194/160 168/196/160 171/207/160
f 169/210/161 166/192/161 167/194/161 170/209/161
f 172/211/162 165/189/162 166/192/162 169/210/162
f 175/202/158 174/201/158 173/212/158 176/213/158
f 158/206/163 160/199/163 175/202/163 176/213/163
f 156/200/164 154/203/164 173/212/164 174/201/164
f 154/203/165 158/206/165 176/213/165 173/212/165
usemtl Material.006
f 155/214/166 159/215/166 157/216/166 153/217/166
f 153/218/167 172/211/167 169/210/167 155/219/167
f 155/219/168 169/210/168 170/209/168 159/215/168
f 159/215/169 170/209/169 171/207/169 157/216/169
f 157/216/170 171/207/170 172/208/170 153/220/170
